<mxfile host="Electron" modified="2023-12-25T23:16:47.406Z" agent="Mozilla/5.0 (Windows NT 10.0; Win64; x64) AppleWebKit/537.36 (KHTML, like Gecko) draw.io/21.1.2 Chrome/106.0.5249.199 Electron/21.4.3 Safari/537.36" etag="QuOsgQfvKxQFLHr9MViO" version="21.1.2" type="device">
  <diagram name="Страница 1" id="i-m2k3XK_V0nmeYM6Gjc">
    <mxGraphModel dx="705" dy="457" grid="1" gridSize="10" guides="1" tooltips="1" connect="1" arrows="1" fold="1" page="1" pageScale="1" pageWidth="1200" pageHeight="1400" math="0" shadow="0">
      <root>
        <mxCell id="0" />
        <mxCell id="1" parent="0" />
        <mxCell id="A6MxWUw8LgV8OTlGh1sf-6" style="rounded=0;orthogonalLoop=1;jettySize=auto;html=1;exitX=0.75;exitY=1;exitDx=0;exitDy=0;entryX=0.25;entryY=0;entryDx=0;entryDy=0;" edge="1" parent="1" source="A6MxWUw8LgV8OTlGh1sf-1" target="A6MxWUw8LgV8OTlGh1sf-2">
          <mxGeometry relative="1" as="geometry" />
        </mxCell>
        <mxCell id="A6MxWUw8LgV8OTlGh1sf-15" value="-NOT-" style="edgeLabel;html=1;align=center;verticalAlign=middle;resizable=0;points=[];fontStyle=1" vertex="1" connectable="0" parent="A6MxWUw8LgV8OTlGh1sf-6">
          <mxGeometry x="-0.167" y="-1" relative="1" as="geometry">
            <mxPoint x="23" y="-5" as="offset" />
          </mxGeometry>
        </mxCell>
        <mxCell id="A6MxWUw8LgV8OTlGh1sf-10" style="rounded=0;orthogonalLoop=1;jettySize=auto;html=1;exitX=1;exitY=0.25;exitDx=0;exitDy=0;entryX=0;entryY=0.25;entryDx=0;entryDy=0;" edge="1" parent="1" source="A6MxWUw8LgV8OTlGh1sf-1" target="A6MxWUw8LgV8OTlGh1sf-3">
          <mxGeometry relative="1" as="geometry" />
        </mxCell>
        <mxCell id="A6MxWUw8LgV8OTlGh1sf-16" value="Enter key" style="edgeLabel;html=1;align=center;verticalAlign=middle;resizable=0;points=[];fontStyle=1" vertex="1" connectable="0" parent="A6MxWUw8LgV8OTlGh1sf-10">
          <mxGeometry x="-0.2921" relative="1" as="geometry">
            <mxPoint x="23" y="-11" as="offset" />
          </mxGeometry>
        </mxCell>
        <mxCell id="A6MxWUw8LgV8OTlGh1sf-1" value="ESCAPE MODE" style="rounded=1;whiteSpace=wrap;html=1;fontStyle=1" vertex="1" parent="1">
          <mxGeometry x="330" y="220" width="120" height="60" as="geometry" />
        </mxCell>
        <mxCell id="A6MxWUw8LgV8OTlGh1sf-9" style="rounded=0;orthogonalLoop=1;jettySize=auto;html=1;exitX=0;exitY=0.5;exitDx=0;exitDy=0;entryX=0.25;entryY=1;entryDx=0;entryDy=0;" edge="1" parent="1" source="A6MxWUw8LgV8OTlGh1sf-2" target="A6MxWUw8LgV8OTlGh1sf-1">
          <mxGeometry relative="1" as="geometry" />
        </mxCell>
        <mxCell id="A6MxWUw8LgV8OTlGh1sf-14" value=":Command" style="edgeLabel;html=1;align=center;verticalAlign=middle;resizable=0;points=[];fontStyle=1" vertex="1" connectable="0" parent="A6MxWUw8LgV8OTlGh1sf-9">
          <mxGeometry x="-0.1247" y="-3" relative="1" as="geometry">
            <mxPoint x="-45" y="-1" as="offset" />
          </mxGeometry>
        </mxCell>
        <mxCell id="A6MxWUw8LgV8OTlGh1sf-2" value="INSERT MODE" style="rounded=1;whiteSpace=wrap;html=1;fontStyle=1" vertex="1" parent="1">
          <mxGeometry x="480" y="370" width="120" height="60" as="geometry" />
        </mxCell>
        <mxCell id="A6MxWUw8LgV8OTlGh1sf-11" style="edgeStyle=orthogonalEdgeStyle;rounded=0;orthogonalLoop=1;jettySize=auto;html=1;exitX=0;exitY=0.75;exitDx=0;exitDy=0;entryX=1;entryY=0.75;entryDx=0;entryDy=0;" edge="1" parent="1" source="A6MxWUw8LgV8OTlGh1sf-3" target="A6MxWUw8LgV8OTlGh1sf-1">
          <mxGeometry relative="1" as="geometry" />
        </mxCell>
        <mxCell id="A6MxWUw8LgV8OTlGh1sf-17" value=":&amp;nbsp;" style="edgeLabel;html=1;align=center;verticalAlign=middle;resizable=0;points=[];fontStyle=1" vertex="1" connectable="0" parent="A6MxWUw8LgV8OTlGh1sf-11">
          <mxGeometry x="0.0974" y="-1" relative="1" as="geometry">
            <mxPoint x="13" y="16" as="offset" />
          </mxGeometry>
        </mxCell>
        <mxCell id="A6MxWUw8LgV8OTlGh1sf-20" style="rounded=0;orthogonalLoop=1;jettySize=auto;html=1;exitX=0.25;exitY=0;exitDx=0;exitDy=0;entryX=0.75;entryY=1;entryDx=0;entryDy=0;" edge="1" parent="1" source="A6MxWUw8LgV8OTlGh1sf-3" target="A6MxWUw8LgV8OTlGh1sf-4">
          <mxGeometry relative="1" as="geometry" />
        </mxCell>
        <mxCell id="A6MxWUw8LgV8OTlGh1sf-22" value="v or V key" style="edgeLabel;html=1;align=center;verticalAlign=middle;resizable=0;points=[];fontStyle=1" vertex="1" connectable="0" parent="A6MxWUw8LgV8OTlGh1sf-20">
          <mxGeometry x="0.4978" y="2" relative="1" as="geometry">
            <mxPoint x="-19" y="14" as="offset" />
          </mxGeometry>
        </mxCell>
        <mxCell id="A6MxWUw8LgV8OTlGh1sf-21" style="rounded=0;orthogonalLoop=1;jettySize=auto;html=1;exitX=1;exitY=0.5;exitDx=0;exitDy=0;entryX=0.75;entryY=0;entryDx=0;entryDy=0;" edge="1" parent="1" source="A6MxWUw8LgV8OTlGh1sf-4" target="A6MxWUw8LgV8OTlGh1sf-3">
          <mxGeometry relative="1" as="geometry" />
        </mxCell>
        <mxCell id="A6MxWUw8LgV8OTlGh1sf-23" value="Eccape key" style="edgeLabel;html=1;align=center;verticalAlign=middle;resizable=0;points=[];fontStyle=1" vertex="1" connectable="0" parent="A6MxWUw8LgV8OTlGh1sf-21">
          <mxGeometry x="-0.1339" y="1" relative="1" as="geometry">
            <mxPoint x="28" y="-10" as="offset" />
          </mxGeometry>
        </mxCell>
        <mxCell id="A6MxWUw8LgV8OTlGh1sf-3" value="COMMAND MODE" style="rounded=1;whiteSpace=wrap;html=1;fontStyle=1" vertex="1" parent="1">
          <mxGeometry x="620" y="220" width="120" height="60" as="geometry" />
        </mxCell>
        <mxCell id="A6MxWUw8LgV8OTlGh1sf-4" value="VISUAL MODE" style="rounded=1;whiteSpace=wrap;html=1;fontStyle=1" vertex="1" parent="1">
          <mxGeometry x="480" y="90" width="120" height="60" as="geometry" />
        </mxCell>
        <mxCell id="A6MxWUw8LgV8OTlGh1sf-12" style="rounded=0;orthogonalLoop=1;jettySize=auto;html=1;exitX=1;exitY=0.5;exitDx=0;exitDy=0;entryX=0.75;entryY=1;entryDx=0;entryDy=0;" edge="1" parent="1">
          <mxGeometry relative="1" as="geometry">
            <mxPoint x="710" y="280" as="sourcePoint" />
            <mxPoint x="600" y="400" as="targetPoint" />
          </mxGeometry>
        </mxCell>
        <mxCell id="A6MxWUw8LgV8OTlGh1sf-18" value="Escape key" style="edgeLabel;html=1;align=center;verticalAlign=middle;resizable=0;points=[];fontStyle=1" vertex="1" connectable="0" parent="A6MxWUw8LgV8OTlGh1sf-12">
          <mxGeometry x="0.1252" y="-2" relative="1" as="geometry">
            <mxPoint x="-67" y="-36" as="offset" />
          </mxGeometry>
        </mxCell>
        <mxCell id="A6MxWUw8LgV8OTlGh1sf-13" style="rounded=0;orthogonalLoop=1;jettySize=auto;html=1;exitX=0.25;exitY=1;exitDx=0;exitDy=0;entryX=0.75;entryY=0;entryDx=0;entryDy=0;" edge="1" parent="1">
          <mxGeometry relative="1" as="geometry">
            <mxPoint x="570" y="370" as="sourcePoint" />
            <mxPoint x="650" y="280" as="targetPoint" />
          </mxGeometry>
        </mxCell>
        <mxCell id="A6MxWUw8LgV8OTlGh1sf-19" value="Insert key &lt;br&gt;(i, I, o, O, a, A,&amp;nbsp;etc.)" style="edgeLabel;html=1;align=center;verticalAlign=middle;resizable=0;points=[];fontStyle=1" vertex="1" connectable="0" parent="A6MxWUw8LgV8OTlGh1sf-13">
          <mxGeometry x="-0.248" relative="1" as="geometry">
            <mxPoint x="100" y="24" as="offset" />
          </mxGeometry>
        </mxCell>
      </root>
    </mxGraphModel>
  </diagram>
</mxfile>
